<?xml version="1.0" standalone="no"?>
<!DOCTYPE svg PUBLIC "-//W3C//DTD SVG 20010904//EN"
 "http://www.w3.org/TR/2001/REC-SVG-20010904/DTD/svg10.dtd">
<svg version="1.0" xmlns="http://www.w3.org/2000/svg"
 width="414.000000pt" height="414.000000pt" viewBox="0 0 414.000000 414.000000"
 preserveAspectRatio="xMidYMid meet">
<metadata>
Created by potrace 1.14, written by Peter Selinger 2001-2017
</metadata>
<g transform="translate(0.000000,414.000000) scale(0.100000,-0.100000)"
fill="#000000" stroke="none">
<path d="M0 2070 l0 -2070 2070 0 2070 0 0 2070 0 2070 -2070 0 -2070 0 0
-2070z m1257 745 c117 -35 193 -133 201 -262 4 -67 2 -79 -27 -138 -56 -114
-164 -172 -300 -163 -81 6 -153 40 -205 98 -54 60 -70 102 -70 190 -1 93 25
151 94 213 80 72 195 95 307 62z m420 -200 c47 -110 88 -203 92 -207 3 -3 47
88 96 203 l90 209 53 0 c28 0 52 -3 52 -8 0 -4 -53 -129 -118 -277 l-118 -270
-55 -3 -55 -3 -108 248 c-60 136 -115 263 -123 281 l-14 33 61 -3 62 -3 85
-200z m853 160 l0 -45 -150 0 -150 0 0 -70 0 -70 135 0 135 0 0 -45 0 -45
-135 0 -135 0 0 -75 0 -74 158 -3 157 -3 3 -42 3 -43 -215 0 -216 0 0 280 0
280 205 0 205 0 0 -45z m485 21 c58 -27 78 -47 100 -99 33 -80 5 -188 -61
-230 -37 -24 -40 -33 -21 -56 7 -9 35 -46 61 -83 l47 -68 -60 0 -59 0 -56 80
-56 80 -70 0 -70 0 0 -80 0 -80 -55 0 -55 0 0 280 0 280 153 0 c139 0 156 -2
202 -24z"/>
<path d="M1060 2708 c-127 -68 -127 -272 0 -335 79 -40 189 -25 242 34 72 80
59 223 -27 289 -54 41 -150 46 -215 12z"/>
<path d="M2770 2620 l0 -112 89 4 c105 4 140 22 155 82 12 46 0 82 -37 110
-23 17 -46 22 -118 24 l-89 4 0 -112z"/>
</g>
</svg>
